<?xml version="1.0" encoding="UTF-8"?>
<svg id="Layer_1" data-name="Layer 1" xmlns="http://www.w3.org/2000/svg" viewBox="0 0 82.41 67.71">
  <defs>
    <style>
      .cls-1 {
        fill-rule: evenodd;
      }
    </style>
  </defs>
  <path class="cls-1" d="M71.52,38.18c-2.14-.66-4.77-.62-7.38.3-2.61.91-4.69,2.52-5.95,4.38-1.23,1.81-1.66,3.86-1.01,5.72.65,1.86,2.27,3.18,4.36,3.83,2.14.66,4.77.62,7.38-.3s4.69-2.52,5.95-4.38c1.23-1.81,1.66-3.86,1.01-5.72-.65-1.86-2.27-3.18-4.36-3.83h0ZM63.82,37.56c2.81-.99,5.66-1.03,8-.31,2.39.74,4.24,2.28,5,4.45s.27,4.53-1.12,6.59c-1.37,2.02-3.62,3.77-6.44,4.76-2.81.99-5.66,1.03-8,.31-2.39-.74-4.24-2.28-5-4.45-.76-2.16-.27-4.53,1.12-6.59,1.37-2.02,3.62-3.77,6.44-4.76ZM69.21,41.61c1.08.34,1.91,1.02,2.25,1.96.33.95.11,2-.53,2.94-.66.98-1.77,1.83-3.15,2.32-1.39.48-2.78.51-3.91.16-1.08-.34-1.91-1.02-2.25-1.96-.33-.95-.11-2,.53-2.94.66-.98,1.77-1.83,3.15-2.32s2.78-.51,3.91-.16ZM64.97,40.84c1.59-.56,3.2-.58,4.52-.17,1.38.43,2.45,1.32,2.89,2.58.44,1.26.16,2.62-.64,3.81-.78,1.15-2.05,2.14-3.64,2.7s-3.2.58-4.52.17c-1.38-.43-2.45-1.32-2.89-2.58s-.16-2.62.64-3.81c.78-1.15,2.05-2.14,3.64-2.7ZM65.81,43.24c.7-.24,1.4-.25,1.98-.07.64.2,1.13.62,1.34,1.21.21.59.08,1.23-.29,1.78-.34.51-.9.94-1.6,1.19-.7.24-1.4.25-1.98.07-.64-.2-1.13-.62-1.34-1.21-.21-.59-.08-1.23.29-1.78.34-.51.9-.94,1.6-1.19ZM51.99,47.1c.09-1.89.79-3.79,1.98-5.55,1.89-2.8,5.02-5.21,8.94-6.59,3.92-1.38,7.88-1.45,11.1-.45,3.18.98,5.63,3.01,6.62,5.83.99,2.83.34,5.95-1.53,8.7-1.89,2.79-5,5.2-8.91,6.57l-.07.02c-3.91,1.36-7.85,1.43-11.07.43-3.16-.98-5.61-2.99-6.61-5.8,0-.02-.02-.05-.02-.07-.35-1-.48-2.04-.44-3.08v-.03h0ZM13.55,28.79l.4-4.63c-1.39.56-2.84,1.03-5.66.6l-.81,4.77c3.05.45,4.46-.11,5.95-.69l.12-.05h0ZM12.98,35.4l-.28.11c-1.57.59-3.09,1.15-6.35.69l1.02-6.02c3.1.46,4.61-.07,6.11-.66l-.51,5.89h0ZM12.34,42.78l.57-6.65c-1.66.62-3.25,1.21-6.68.71l-1.15,6.79c3.49.47,5.1-.09,6.78-.68.16-.05.31-.11.47-.16h0ZM11.53,52.19c-.25.08-.5.16-.75.24-1.81.59-3.55,1.15-7.29.69l1.5-8.85c3.65.5,5.34-.1,7.11-.71l.19-.07-.75,8.7h0ZM10.57,63.29l.89-10.38c-.16.05-.32.11-.49.16-1.89.61-3.7,1.2-7.61.71l-1.78,10.51c.38.25,1.37.64,3.32.48,1.41-.11,3.26-.52,5.66-1.48h0ZM21.63,28.17l.02-4.79c-3.82-.67-5.52-.11-7.02.5l-.4,4.65c1.59-.57,3.51-1.01,7.4-.35h0ZM21.59,34.89c-4.17-.7-6.25-.29-7.94.27l.51-5.91c1.58-.6,3.43-1.11,7.46-.41l-.03,6.05h0ZM21.56,42.36l.03-6.81c-4.31-.73-6.32-.27-8,.32l-.57,6.68c1.8-.55,4.06-.93,8.55-.19h0ZM21.52,51.91c-4.88-.77-7.37-.45-9.32.09l.75-8.73c1.79-.58,3.98-1,8.6-.23l-.04,8.88ZM21.48,62.38l.04-9.81c-5.01-.8-7.45-.43-9.38.12l-.89,10.33c2.75-.94,6.38-.97,10.22-.65h0ZM22.22,43.14l-.04,8.88c.7.12,1.43.26,2.23.42-.04-.42-.03-.8,0-1.13.01-.14.04-.28.08-.42l.07-7.27c-.84-.19-1.61-.35-2.33-.48h0ZM22.25,35.67l-.03,6.8c.72.13,1.5.29,2.34.47l.06-6.77c-.86-.2-1.64-.37-2.37-.51h0ZM22.28,28.96l-.03,6.05c.73.14,1.52.3,2.38.5l.06-6.01c-.88-.22-1.68-.4-2.41-.54h0ZM22.3,23.5l-.02,4.79c.73.14,1.54.32,2.41.54l.05-4.75c-.89-.24-1.7-.42-2.43-.57h0ZM33.33,58.86l-.09,5.08c3.25.45,6.11.75,8.03.48,1.56-.22,2.45-.84,2.28-2.12,0-.01,0-.02,0-.04h0c-.31-2.02-6.34-2.83-8.25-3.09l-.13-.02c-.65-.09-1.26-.19-1.84-.3h0ZM32.59,63.85l.09-5.12c-3.59-.76-5.65-1.93-6.81-3.15-.79-.82-1.17-1.67-1.35-2.44-.84-.18-1.61-.32-2.34-.45l-.04,9.76c2.68.25,5.44.66,8.07,1.05.81.12,1.61.24,2.39.35h0ZM30.28,19.78l-.24-4.61c-2.1-.07-3.75.55-4.26,2.46l-.04,3.69c1-1.16,2.62-1.57,4.54-1.54h0ZM30.62,26.28c-2.1-.02-3.88.42-4.94,1.62l.04-4.2h0s.01-1.13.01-1.13c.72-1.63,2.44-2.19,4.59-2.14l.3,5.84h0ZM31.01,33.69l-.36-6.77c-2.34-.04-4.22.54-4.99,2.2l-.06,6.28c1.14-1.25,3.09-1.72,5.4-1.71h0ZM31.42,41.53c-2.55,0-4.68.49-5.89,1.79l.06-6.75c.82-1.68,2.87-2.28,5.45-2.26l.38,7.22h0ZM31.83,49.28l-.38-7.13c-2.82-.01-5.04.6-5.93,2.3l-.05,5.25c.25-.14.53-.27.86-.37.9-.27,2.15-.38,3.76-.25.54.04,1.11.11,1.74.2h0ZM38.65,21.66l-.91-4.51c-1.39-.54-2.87-1.06-4.31-1.43-.94-.24-1.87-.42-2.73-.5l.24,4.6c1.48.1,3.09.44,4.7.89,1.02.29,2.03.61,3,.95h0ZM39.96,28.18c-.3-.09-.59-.19-.9-.28-2.59-.8-5.37-1.46-7.78-1.6l-.3-5.83c1.4.11,2.95.43,4.49.86,1.12.32,2.25.69,3.33,1.07l1.16,5.77h0ZM41.46,35.61l-1.35-6.69c-.41-.13-.82-.27-1.24-.39-2.53-.77-5.23-1.44-7.55-1.58l.36,6.76c3.03.12,6.6.97,9.79,1.91h0ZM43.04,43.48c-3.57-.96-7.59-1.83-10.97-1.93l-.38-7.21c3.03.14,6.68,1.04,9.91,2l1.44,7.14h0ZM45,53.17c-.69-.25-1.34-.48-1.94-.71-.02,0-.03-.01-.05-.02l-.57-.21c-.91-.34-1.66-.62-2.27-.82-3.03-1.02-5.59-1.67-7.69-2.03l-.38-7.22c3.38.12,7.47,1.04,11.08,2.02l1.81,8.98h0ZM43.89,44.39c1.81.5,3.47,1.02,4.83,1.43.8.25,1.5.46,2.06.62l.2.72c-.04,1.15.12,2.3.51,3.41.95,2.69,3.06,4.72,5.83,5.92-3.88-.51-8.18-1.86-11.62-3.06l-1.82-9.04h0ZM42.32,36.55l1.44,7.12c1.94.54,3.72,1.08,5.17,1.52.62.19,1.18.36,1.66.5l-2.03-7.11c-.5-.16-1.13-.37-1.86-.61-1.23-.41-2.74-.92-4.38-1.43h0ZM40.82,29.15c1.48.5,2.84,1,3.96,1.41.63.23,1.19.44,1.66.61l1.9,6.66c-.42-.14-.9-.3-1.43-.48-1.32-.45-2.96-1-4.74-1.53l-1.34-6.67h0ZM39.52,22.67l1.16,5.74c1.63.54,3.12,1.09,4.33,1.54.45.16.86.32,1.21.45l-1.63-5.73c-.42-.16-.92-.36-1.49-.59-1.01-.41-2.24-.91-3.58-1.4h0ZM38.46,17.44c1.18.48,2.26.96,3.16,1.35.56.25,1.05.46,1.47.64l1.27,4.45c-.3-.12-.64-.26-1.02-.41-1.11-.45-2.48-1.01-3.98-1.55l-.9-4.48h0ZM61.23,19.67l3.34,6.59c1.24-.09,2.49-.08,3.7.03,1.52.14,2.98.45,4.34.93l-4.31-6.84c-1.18-.45-2.51-.71-3.91-.8-1.03-.06-2.09-.04-3.16.09h0ZM57.94,13.17l2.97,5.88c1.19-.14,2.38-.19,3.52-.12,1.16.07,2.28.26,3.31.57l-3.82-6.08s-.08-.02-.12-.02c-1.84-.38-3.85-.46-5.86-.23h0ZM54.96,7.28l2.66,5.27c1.98-.25,3.97-.21,5.81.11l-3.04-4.82c-1.73-.43-3.59-.64-5.44-.56h0ZM52.36,2.15l2.27,4.49c1.78-.1,3.57.05,5.27.41l-2.12-3.37c-1.39-.92-3.35-1.46-5.42-1.53h0ZM67.93,32.91c2.27-.16,4.44.07,6.37.67,1.18.37,2.28.87,3.25,1.5l-4.36-6.93c-1.52-.64-3.22-1.04-4.98-1.2-1.09-.1-2.2-.12-3.32-.05l3.05,6.02h0ZM46.27,9.47l-1.81-4.83c-.5.43-.94.93-1.32,1.48-.87,1.29-1.4,2.91-1.41,4.93l.78,2.72c.99-1.8,2.28-3.22,3.77-4.31h0ZM48.75,16.08l-2.24-5.97c-1.51,1.14-2.8,2.65-3.74,4.59l1.97,6.9c.79-2.26,2.21-4.1,4.02-5.52h0ZM51.26,22.77c-1.8,1.34-3.25,3.01-4.05,4.93-.16.38-.29.76-.4,1.15l-1.73-6.08c.62-2.5,2.04-4.52,3.92-6.05l2.27,6.04ZM53.93,29.89l-2.43-6.47c-1.64,1.26-2.95,2.79-3.69,4.55-.3.72-.51,1.48-.61,2.28l1.81,6.34c.15-.56.34-1.09.58-1.61.92-2.02,2.45-3.73,4.34-5.08h0ZM52.05,23.01c.77-.54,1.61-1.02,2.49-1.44,1.88-.9,3.94-1.52,6-1.82l3.32,6.57c-2.29.24-4.56.82-6.62,1.71-.97.42-1.9.91-2.76,1.48l-2.44-6.5ZM49.54,16.31c.89-.66,1.88-1.21,2.91-1.67,1.52-.67,3.15-1.13,4.8-1.38l2.98,5.88c-2.05.32-4.11.95-5.97,1.84-.86.41-1.68.88-2.44,1.4l-2.28-6.07h0ZM47.06,9.72c.82-.55,1.69-1,2.6-1.36,1.46-.57,3.01-.91,4.58-1.04l2.69,5.32c-1.64.27-3.25.73-4.75,1.39-1.02.45-1.99,1-2.89,1.64l-2.23-5.95ZM45,4.21c.6-.44,1.25-.81,1.94-1.11,1.46-.62,3.09-.93,4.68-.96l2.3,4.55c-1.54.15-3.07.49-4.5,1.05-.91.36-1.78.8-2.59,1.34l-1.83-4.88ZM54.16,30.52l2.52,6.73c-1.42,1.12-2.62,2.39-3.54,3.75-.83,1.22-1.44,2.52-1.79,3.83l-1.96-6.89c.14-.96.41-1.86.79-2.7.84-1.86,2.24-3.44,3.98-4.71h0ZM38.45,51.9c.46.14.93.3,1.41.46.54.18,1.31.46,2.24.81l.31.12.89,7.18c-1.09-.77-2.77-1.29-4.34-1.65l-.52-6.91ZM30.28,57.06c-1.8-.63-2.96-1.38-3.7-2.16-1.21-1.27-1.27-2.62-1.2-3.52,0-.08.02-.15.04-.22.12-.37.52-.68,1.2-.89.79-.24,1.91-.32,3.4-.21.05,0,.09,0,.14.01l.07,6.82c0,.06.02.11.04.16h0ZM30.82,50.14c1.85.21,4.16.7,6.96,1.55l.53,6.98c-1.18-.24-2.25-.38-2.89-.46l-.13-.02c-1.85-.25-3.37-.59-4.6-.98.12-.05.2-.17.2-.3l-.07-6.75h0ZM62.58,34.03c1.55-.55,3.12-.89,4.64-1.06l-3.05-6.03c-2.3.21-4.6.79-6.68,1.69-.98.43-1.92.93-2.78,1.5l2.51,6.7c1.55-1.14,3.36-2.1,5.35-2.8h0Z"/>
</svg>