<?xml version="1.0" encoding="UTF-8"?>
<svg id="Layer_1" xmlns="http://www.w3.org/2000/svg" version="1.1" viewBox="0 0 78.9 63">
  <!-- Generator: Adobe Illustrator 30.5.0, SVG Export Plug-In . SVG Version: 2.1.4 Build 167)  -->
  <defs>
    <style>
      .st0 {
        fill-rule: evenodd;
      }
    </style>
  </defs>
  <path class="st0" d="M46,40.3c0,0,0-.2,0-.2l2.1-2.1c0,0,.1,0,.2,0,.6,0,1,0,1.4,0,2.6,0,4.8,0,7.5.7,1.8.5,3.5,1.4,4.9,2.7,1.4,1.2,2.5,2.8,3.2,4.6,0,0,0,0,0,.1l-.6,2.9c2.4-.9,2.6-.7,3.6,0,.2.1.4.2.6.4,1,.6,2.4,1.4,3.9,1.9,1.5.5,3,.6,4-.1,1-.7,1.5-1.6,1.8-2.6.3-1.4,0-3-.8-4.7-.8-1.7-2.1-3.3-3.6-4.7-2.6-2.3-6-3.9-9.6-3.8-1.3,0-2.7.1-4.1.2-6.4.3-13.6.6-16-.9,0,.4,0,.9-.2,1.4-.2,1.2-.4,2.8-.1,4.5.5,0,1.1,0,1.7,0h0ZM75.9,48.2c-.2.3-.4.5-.7.6-.6.3-1.3.3-2.1.1-.7-.2-1.5-.7-2.3-1.2-2-1.4-4-3.7-4.8-5-.2-.3-.3-.6-.4-.8-.4-.8-.5-1.5-.5-2.1,0-.7.4-1.2,1-1.6,0,0,.1,0,.2-.1,1.2-.5,3.2.2,5.1,1.6.9.7,1.8,1.5,2.6,2.3.8.9,1.4,1.8,1.9,2.7.6,1.3.7,2.6,0,3.6h0ZM66.8,56.6c.3.6.5,1.2.4,1.7,0,.6-.3,1.1-.7,1.5-.4.4-1,.7-1.7.9-1.1.2-2.4.1-4-.4-2.5-.9-4.5-2.3-5.9-4.1-1.5-1.8-2.5-3.9-3.3-6.4-.4-1.2-.5-3-.1-4.4.2-.7.4-1.2.8-1.6.4-.4.9-.7,1.5-.6.6,0,1.3.3,2.2.9,0,0,0,0,0,0l10.8,12.4s0,0,0,0h0ZM39.3,32.8c-.2-.2-.5-.3-.8-.3s-.6.1-.8.3c-.2.2-.3.5-.3.8s.1.6.3.8c.2.2.5.3.8.3s.6-.1.8-.3c.2-.2.3-.5.3-.8s-.1-.6-.3-.8ZM38.4,31.6c.5,0,1,.2,1.4.6.4.4.6.9.6,1.4s-.2,1-.6,1.4c-.4.4-.9.6-1.4.6s-1-.2-1.4-.6c-.4-.4-.6-.9-.6-1.4s.2-1,.6-1.4c.4-.4.9-.6,1.4-.6ZM27.8,27.5l11.5,15.1c-1.3-.8-2.7-1.6-4.3-2.5C22.7,33.1,3.9,22.3,0,14l27.8,13.6h0ZM44,33.8s0,0,0,0c.1.3,0,1-.1,1.9-.2,1.3-.5,3.1-.1,4.9,0,.1.1.2.2.2,1.3,0,2.6,0,3.9-.2,4.2-.3,8.5-.6,10.9,2.4l9.4,11.6c.9,1.7,1.2,3.1,1.1,4.2-.1,1.1-.7,2-1.5,2.6-.8.7-1.9,1.1-3,1.3-2,.4-4.3,0-6.2-.7-2.8-1.3-5.3-3.9-7.1-6.8-2.5-4-4-8.4-3.9-10.4,0-.1,0-.2-.2-.3-.3,0-.8,0-1.3-.1-2-.2-5.2-.5-5.8-1.2h0s-12.3-16.1-12.3-16.1c0,0,0,0,0,0L7.4,0c9,2.2,23.3,18.5,32.5,29.2,1.5,1.7,2.9,3.3,4.1,4.6h0Z"/>
</svg>