<?xml version="1.0" encoding="UTF-8"?>
<svg id="Layer_1" data-name="Layer 1" xmlns="http://www.w3.org/2000/svg" viewBox="0 0 42.68 94.55">
  <defs>
    <style>
      .cls-1 {
        fill-rule: evenodd;
      }
    </style>
  </defs>
  <path class="cls-1" d="M18.35,58.17c.05-.06.13-.09.21-.07l2.94.34c.07,0,.14.03.18.09.38.47.64.8.9,1.11,1.64,2.02,3.04,3.74,4.16,6.31.77,1.75,1.09,3.63.97,5.48-.11,1.86-.66,3.7-1.62,5.35-.02.04-.06.08-.11.1l-2.66,1.39c2.19,1.37,2.21,1.58,2.32,2.78.02.2.04.44.08.73.15,1.11.43,2.77.98,4.25.55,1.44,1.36,2.71,2.61,3.09,1.13.35,2.19.22,3.14-.25,1.28-.64,2.37-1.92,3.17-3.56.81-1.66,1.32-3.69,1.44-5.81.19-3.46-.67-7.15-3.02-9.9-.83-.97-1.74-2.02-2.69-3.08-4.25-4.84-8.96-10.22-9.22-13.08-.32.24-.74.49-1.24.77-1.08.62-2.5,1.43-3.63,2.7.34.42.7.85,1.07,1.27h0ZM30.84,86.48c-.34.02-.64-.03-.91-.14-.63-.25-1.07-.81-1.37-1.55-.28-.71-.44-1.6-.49-2.55-.13-2.46.39-5.41.96-6.86.12-.29.24-.58.38-.85.38-.75.83-1.36,1.36-1.72.56-.38,1.19-.49,1.9-.21.07.03.15.06.23.1,1.14.58,1.79,2.61,1.92,4.95.06,1.13,0,2.34-.18,3.48-.19,1.15-.5,2.24-.96,3.13-.66,1.29-1.6,2.17-2.84,2.23h0ZM18.61,84.66c-.25.62-.62,1.09-1.08,1.39-.49.32-1.06.45-1.66.38-.59-.07-1.2-.34-1.77-.8-.84-.68-1.61-1.8-2.13-3.39-.84-2.57-.97-4.92-.52-7.17.45-2.25,1.48-4.4,2.96-6.58.73-1.08,2.05-2.25,3.35-2.84.61-.28,1.22-.43,1.77-.39.58.04,1.09.29,1.46.81.35.49.57,1.23.61,2.28,0,.02,0,.04,0,.06l-2.98,16.23s0,.03-.01.05h0ZM20.09,48.21c.03-.3-.05-.61-.25-.86s-.48-.4-.78-.43c-.3-.03-.61.05-.86.25s-.4.48-.43.78c-.03.3.05.61.25.86s.48.4.78.43c.3.03.61-.05.86-.25s.4-.48.43-.78ZM20.48,46.85c.34.43.47.95.42,1.45-.06.5-.31.98-.73,1.32s-.95.47-1.45.42c-.5-.06-.98-.31-1.32-.73s-.47-.95-.42-1.45c.06-.5.31-.98.73-1.32s.95-.47,1.45-.42c.5.06.98.31,1.32.73ZM17.04,35.96l-4.64,18.4c-.22-1.49-.47-3.13-.74-4.89-2.14-13.93-5.44-35.38-1.31-43.67l6.69,30.16h0ZM22.23,52.59s-.02.07-.03.1c-.14.29-.74.63-1.53,1.08-1.16.66-2.68,1.54-3.89,2.96-.07.09-.08.22,0,.31.79,1.01,1.69,1.98,2.59,2.97,2.86,3.11,5.74,6.24,4.92,10.01l-3.24,14.54c-.77,1.74-1.69,2.85-2.67,3.47-.95.6-1.97.73-2.97.51-1.02-.22-2.02-.79-2.91-1.57-1.54-1.35-2.77-3.33-3.25-5.27-.76-3.03-.21-6.56.89-9.79,1.52-4.47,4.08-8.34,5.68-9.54.1-.07.14-.22.07-.32-.15-.26-.4-.64-.68-1.09-1.09-1.7-2.84-4.42-2.63-5.27h0s4.95-19.64,4.95-19.64c0,0,0-.02,0-.03L25.89,2.92c3.88,8.4-.03,29.74-2.57,43.61-.41,2.24-.78,4.28-1.09,6.06h0Z"/>
</svg>