<?xml version="1.0" encoding="UTF-8"?>
<svg id="Layer_1" data-name="Layer 1" xmlns="http://www.w3.org/2000/svg" viewBox="0 0 30.59 71.6">
  <defs>
    <style>
      .cls-1 {
        fill-rule: evenodd;
      }
    </style>
  </defs>
  <path class="cls-1" d="M15.43,1.99c-2.3,0-4.37.41-5.86,1.08-1.41.63-2.29,1.47-2.29,2.37s.88,1.74,2.29,2.37c1.49.66,3.56,1.07,5.86,1.07s4.37-.41,5.86-1.07c1.41-.63,2.29-1.47,2.29-2.37s-.88-1.74-2.29-2.37c-1.49-.66-3.56-1.08-5.86-1.08ZM23.58,12.99c0,.9-.88,1.74-2.29,2.37-1.49.66-3.56,1.07-5.86,1.07s-4.37-.41-5.86-1.07c-1.41-.63-2.29-1.47-2.29-2.37v-5.97c.46.53,1.16,1,2.02,1.39,1.57.7,3.74,1.14,6.12,1.14s4.55-.43,6.12-1.14c.87-.39,1.56-.86,2.02-1.39v5.97h0ZM27.93,29.57l.11.02v-.12l-.05.04-.07.06ZM25.65,29.15c.48.11.96.2,1.44.28.14-.12.3-.26.47-.41.17-.14.32-.29.48-.43v-1.58c-.38.36-.77.72-1.16,1.07-.41.37-.82.72-1.23,1.07h0ZM23.32,28.57c.83-.62,1.64-1.27,2.43-1.95.77-.66,1.54-1.36,2.29-2.09v1.58c-.53.52-1.06,1.01-1.59,1.49-.53.47-1.06.93-1.6,1.38-.51-.12-1.02-.25-1.53-.4h0ZM20.71,27.73c1.27-.83,2.53-1.73,3.76-2.7,1.21-.95,2.4-1.96,3.57-3.03v1.61c-.89.88-1.79,1.71-2.71,2.5-.92.79-1.84,1.53-2.79,2.22-.61-.19-1.22-.39-1.83-.61h0ZM18.02,26.65c1.66-.96,3.32-2.03,4.99-3.23s3.35-2.51,5.03-3.95v1.64c-1.29,1.2-2.61,2.34-3.97,3.4-1.34,1.05-2.71,2.03-4.12,2.93-.64-.25-1.28-.51-1.93-.79h0ZM15.56,25.49l.11.06c.54.27,1.07.53,1.61.78,1.77-1,3.55-2.14,5.35-3.43,1.8-1.29,3.6-2.71,5.41-4.28v-1.39c-.67.84-1.83,1.59-3.34,2.18-.34.13-.69.26-1.06.38-1.17,1.14-2.48,2.21-3.89,3.18-1.33.92-2.75,1.77-4.2,2.52h0ZM12.99,24.08c.62.36,1.24.71,1.86,1.03,1.58-.8,3.11-1.7,4.54-2.69,1.02-.71,1.99-1.46,2.89-2.27-1.43.35-3.05.59-4.78.7-.68.71-1.45,1.35-2.28,1.92-.7.48-1.45.91-2.23,1.3h0ZM10.58,22.6c.43-.23.86-.48,1.25-.75.46-.32.89-.65,1.26-1.01.77.05,1.56.09,2.37.09.36,0,.72,0,1.07-.02-.52.48-1.08.93-1.68,1.34-.79.54-1.64,1.02-2.54,1.45-.58-.35-1.16-.71-1.74-1.09h0ZM8.43,21.13c.51.36,1.02.71,1.52,1.05.54-.27,1.05-.56,1.51-.88.26-.18.5-.36.73-.55-.92-.09-1.8-.23-2.63-.39-.23.19-.47.36-.72.52-.14.09-.27.17-.41.25h0ZM6.74,19.89s.03-.02.04-.03c.07-.05.14-.11.2-.17.54.18,1.12.35,1.74.49-.07.05-.15.1-.23.15-.21.14-.43.26-.65.38-.37-.27-.74-.54-1.11-.82h0ZM6.02,19.33l.18.14s.04-.03.06-.04l-.05-.02c-.06-.02-.13-.05-.19-.08ZM2.87,19.25v-1.64c1.59,1.36,3.16,2.6,4.74,3.74,0,0,.02.01.02.02.7.51,1.4.99,2.1,1.46,0,0,.02.01.03.02,1.64,1.09,3.28,2.06,4.91,2.92.01,0,.02.02.04.02.22.12.45.23.67.34.59.3,1.18.58,1.77.85.01,0,.02.01.03.02.89.41,1.79.78,2.68,1.12h.04c2.73,1.05,5.45,1.75,8.15,2.14v1.81c-4.72-.69-9.14-2.16-13.28-4.29-4.22-2.18-8.17-5.05-11.88-8.51h0ZM2.87,21.75v-1.61c3.63,3.32,7.48,6.09,11.58,8.2,4.24,2.18,8.75,3.68,13.58,4.37v1.81c-4.73-.69-9.18-2.07-13.34-4.16-4.23-2.13-8.18-4.99-11.82-8.61h0ZM2.87,24.24v-1.53h.05c3.55,3.43,7.38,6.17,11.48,8.23,4.25,2.14,8.8,3.55,13.64,4.24v1.81c-4.54-.62-8.89-1.96-13.06-4.04-4.24-2.12-8.28-5.01-12.11-8.71h0ZM2.87,26.72v-1.58c3.74,3.55,7.68,6.34,11.82,8.4,4.25,2.12,8.7,3.48,13.35,4.11v1.81c-4.36-.61-8.61-1.98-12.77-4.08-4.24-2.14-8.37-5.04-12.4-8.65h0ZM4.24,31.23c-.46-.38-.91-.76-1.37-1.15v1.38c.28-.04.56-.09.84-.13.18-.03.36-.06.53-.09h0ZM6.73,33.17c-.61-.45-1.21-.92-1.82-1.41-.37.07-.73.14-1.09.2-.31.05-.63.1-.95.15v1.81c.7-.1,1.4-.22,2.1-.36.59-.12,1.18-.25,1.75-.39h0ZM9.28,34.98c-.62-.42-1.25-.86-1.87-1.3-.77.2-1.54.38-2.31.53-.73.14-1.47.27-2.23.38v1.81c1.15-.17,2.29-.38,3.41-.62,1.01-.23,2.01-.48,3-.78h0ZM11.84,36.61c-.62-.37-1.24-.76-1.86-1.16-1.16.36-2.35.68-3.56.95-1.17.26-2.35.48-3.55.65v1.81c1.58-.22,3.15-.52,4.7-.92,1.45-.37,2.87-.81,4.27-1.34h0ZM2.87,29.22v-1.62c3.93,3.47,7.97,6.27,12.1,8.36,4.24,2.14,8.6,3.54,13.06,4.16v1.8c-1-.15-2-.34-3-.57,0,0-.02,0-.03,0-.77-.18-1.53-.38-2.29-.61h0s0,0,0,0c-1.75-.52-3.49-1.16-5.22-1.93-.01,0-.02-.01-.04-.02-.64-.29-1.29-.59-1.93-.91-.14-.07-.28-.14-.42-.21h0c-.77-.4-1.55-.82-2.32-1.27-.01,0-.02-.02-.04-.02-.84-.48-1.67-1-2.5-1.55-.01-.01-.03-.02-.04-.03-.84-.55-1.68-1.13-2.52-1.75h0c-1.61-1.18-3.2-2.45-4.79-3.84h0ZM25.87,51.54c.5.11,1,.2,1.5.28.11-.13.22-.25.32-.36.13-.15.25-.29.35-.41v-1.57c-.34.34-.68.68-1.03,1.01-.38.36-.76.71-1.14,1.05h0ZM23.35,50.92c.8-.61,1.61-1.25,2.39-1.92.77-.66,1.54-1.34,2.3-2.05v1.6c-.49.51-.98,1-1.48,1.47-.49.46-.98.91-1.48,1.35-.57-.13-1.15-.28-1.73-.45h0ZM20.79,50.1c1.21-.79,2.42-1.66,3.63-2.6,1.21-.95,2.42-1.96,3.62-3.06v1.61c-.89.86-1.8,1.68-2.72,2.46-.91.77-1.82,1.5-2.75,2.19-.59-.18-1.18-.38-1.78-.59h0ZM18.66,49.27c1.45-.84,2.87-1.79,4.27-2.84,1.55-1.17,3.08-2.47,4.58-3.93.17.03.35.05.52.08v.97c-1.34,1.25-2.69,2.39-4.02,3.43-1.33,1.04-2.66,1.98-3.99,2.83-.45-.17-.91-.36-1.36-.55h0ZM15.69,47.9c.74.38,1.48.73,2.22,1.05,1.56-.88,3.11-1.89,4.63-3.04,1.41-1.06,2.8-2.24,4.17-3.54-.56-.1-1.12-.21-1.68-.34-1.57,1.24-3.17,2.37-4.81,3.39-1.49.92-3,1.75-4.53,2.48h0ZM13.55,46.75c.47.27.94.52,1.41.77,1.67-.78,3.32-1.66,4.92-2.66,1.47-.91,2.92-1.92,4.34-3.03-.52-.13-1.03-.27-1.54-.42-1.61,1.19-3.22,2.25-4.82,3.17-1.44.83-2.88,1.55-4.31,2.16h0ZM10.81,45.09c.68.44,1.36.86,2.03,1.25,1.55-.64,3.12-1.41,4.69-2.32,1.45-.83,2.9-1.78,4.37-2.84-.61-.19-1.22-.4-1.82-.62-1.6,1.02-3.21,1.91-4.84,2.7-1.46.7-2.93,1.31-4.41,1.83h0ZM8.19,43.3c.64.46,1.29.91,1.93,1.34,1.62-.54,3.23-1.2,4.82-1.96,1.47-.71,2.92-1.51,4.36-2.4-.65-.25-1.3-.52-1.96-.81-1.6.88-3.2,1.65-4.82,2.31-1.45.59-2.89,1.1-4.34,1.52h0ZM5.77,41.48c.59.46,1.17.9,1.75,1.33,1.6-.44,3.19-.99,4.76-1.64,1.44-.59,2.88-1.28,4.32-2.05-.46-.21-.92-.43-1.38-.66-.1-.05-.19-.1-.29-.14-1.59.76-3.19,1.41-4.8,1.95-1.45.49-2.9.89-4.36,1.2h0ZM3.31,39.46c.6.51,1.2,1.01,1.8,1.49,1.62-.33,3.23-.76,4.82-1.29,1.44-.48,2.87-1.06,4.29-1.71-.55-.29-1.1-.59-1.64-.91-1.59.62-3.2,1.13-4.83,1.55-1.45.37-2.92.66-4.42.88h0ZM2.87,41.59c3.71,3.46,7.66,6.34,11.88,8.51,4.15,2.14,8.56,3.6,13.29,4.29v-1.81c-.19-.03-.39-.05-.58-.09-.01,0-.03,0-.04,0-.77-.12-1.55-.27-2.33-.45h-.01c-.84-.2-1.69-.42-2.54-.68,0,0-.01,0-.02,0-2.37-.71-4.75-1.68-7.15-2.89-.19-.1-.38-.2-.57-.29h-.02c-2.49-1.32-5-2.89-7.52-4.74,0,0-.02-.01-.02-.02-1.45-1.07-2.91-2.23-4.37-3.48v1.64h0ZM2.87,49.06c2.99,2.68,6.04,4.96,9.14,6.84,3.11,1.88,6.28,3.35,9.51,4.39,1.09-.23,2.08-.52,2.95-.86.04-.02.09-.04.13-.05-3.86-.84-7.59-2.22-11.16-4.16-3.68-1.98-7.2-4.56-10.56-7.75v1.58ZM4.19,53.52c-.15.02-.31.04-.46.06-.28.04-.57.06-.85.09v-1.26c.44.38.88.75,1.32,1.11h0ZM6.69,55.49c-.57.12-1.15.24-1.73.34-.7.12-1.39.22-2.09.3v-1.79c.31-.03.62-.06.93-.1.36-.04.72-.09,1.08-.14.6.48,1.2.95,1.8,1.4h0ZM9.14,57.22c-.75.18-1.5.34-2.27.46-.96.16-1.93.28-2.92.35-.47-.4-.8-.83-.96-1.27.7-.08,1.39-.18,2.08-.3.77-.13,1.54-.29,2.31-.47.58.42,1.16.83,1.75,1.23h0ZM11.35,58.65c-.7.16-1.4.3-2.11.42-.95.15-1.91.26-2.9.32-.59-.23-1.11-.49-1.56-.77.74-.07,1.47-.17,2.2-.29.98-.16,1.94-.37,2.89-.62.49.32.99.64,1.48.94h0ZM13.67,60c-.5.09-1,.16-1.52.21-.83.09-1.68.13-2.56.14-.61-.12-1.18-.27-1.73-.43.5-.05.99-.12,1.48-.2.95-.15,1.88-.35,2.8-.59.51.3,1.02.59,1.53.87h0ZM15.41,60.9c-.27-.13-.54-.27-.81-.41-.59.12-1.19.22-1.8.3.84.07,1.72.11,2.62.11h0ZM2.87,51.56v-1.62c2.88,2.54,5.81,4.72,8.8,6.53,2.79,1.69,5.63,3.05,8.53,4.07-1.05.16-2.18.28-3.34.33-.69-.32-1.38-.66-2.06-1.01,0,0,0,0-.02,0-1.56-.82-3.12-1.73-4.67-2.76,0,0-.01,0-.02-.01-.09-.06-.18-.12-.27-.18-1.55-1.03-3.09-2.16-4.62-3.4-.01,0-.02-.02-.03-.03-.77-.62-1.53-1.26-2.29-1.92h0ZM23.58,63.95v2.27c0,.9-.88,1.74-2.29,2.37-1.49.66-3.56,1.08-5.86,1.08s-4.37-.41-5.86-1.08c-1.41-.63-2.29-1.47-2.29-2.37v-5.8c2.24.71,5.09,1.13,8.17,1.13,2.8,0,5.99-.48,8.13-1.07.06,1.23.03,2.28,0,3.47h0ZM28.04,55.29v.86c0,.23-.05.46-.14.69-4.72-.7-9.16-2.1-13.32-4.2-4.19-2.12-8.09-4.96-11.7-8.55v-1.61c3.63,3.32,7.48,6.09,11.58,8.2,4.21,2.17,8.69,3.66,13.49,4.36.03.09.06.17.1.25h0ZM27.15,57.88c-.4.38-.92.73-1.55,1.05-4.11-.81-8.07-2.22-11.86-4.27-3.79-2.05-7.42-4.73-10.87-8.07v-1.58c3.53,3.42,7.33,6.15,11.41,8.22,4.14,2.1,8.57,3.5,13.26,4.23-.1.12-.21.25-.33.37-.02.02-.05.04-.07.06h0ZM6.63,12.16c-1.14.43-2.07.94-2.72,1.51-.66.57-1.04,1.2-1.04,1.85,0,.97.82,1.89,2.21,2.65.02,0,.04.02.05.03.39.21.83.42,1.31.61.91.36,1.95.66,3.09.89h0c1.76.36,3.77.57,5.9.57,3.52,0,6.71-.56,9.01-1.46,2.21-.87,3.57-2.03,3.57-3.29,0-.65-.38-1.28-1.05-1.86-.66-.57-1.61-1.09-2.76-1.52v.86c0,1.18-1.03,2.22-2.68,2.96-1.57.7-3.74,1.14-6.12,1.14s-4.55-.43-6.12-1.14c-1.65-.73-2.67-1.78-2.68-2.96v-.84h0Z"/>
</svg>