<?xml version="1.0" encoding="UTF-8"?>
<svg id="Layer_1" xmlns="http://www.w3.org/2000/svg" version="1.1" viewBox="0 0 38.1 78.9">
  <!-- Generator: Adobe Illustrator 30.5.0, SVG Export Plug-In . SVG Version: 2.1.4 Build 167)  -->
  <defs>
    <style>
      .st0 {
        fill: #565656;
      }
    </style>
  </defs>
  <polygon class="st0" points="4.3 7.6 0 69.4 3.1 72 4.4 72.5 4.3 74.9 16.5 77.7 27.8 76.7 33.6 74.2 33.6 72.5 37.9 69.2 33.7 7.6 27.6 4.4 19.5 5.9 10.4 4.4 4.3 7.6"/>
  <path d="M1.6,45.5v1.1c1.3-.5,2.7-.9,4-1.4,1.4-.5,2.7-1,4.1-1.6-.9-.6-1.8-1.3-2.8-1.9-.9.4-1.8.7-2.7,1-.8.3-1.7.6-2.5.9v1.9h0ZM25.3,52.3c.9.4,1.8.8,2.7,1.2-3.1,2.1-6.2,3.9-9.3,5.5-3.2,1.7-6.4,3.2-9.5,4.5-.9-.6-1.8-1.3-2.8-2,3-1.1,6.1-2.4,9.1-3.9,3.2-1.6,6.5-3.3,9.8-5.4h0ZM29.1,65.6c2.7-1.8,5.5-3.9,8.3-6.1l.2,3.3c-2.2,1.8-4.4,3.5-6.7,5.1-2.2,1.6-4.4,3-6.6,4.4-1.1-.5-2.2-1.1-3.4-1.7,2.7-1.5,5.4-3.2,8.1-5h0ZM36,56.6c.4,0,.7.2,1.1.4v1.5c-2.8,2.4-5.7,4.5-8.5,6.4-2.9,1.9-5.7,3.7-8.6,5.2-.9-.5-1.9-1-2.8-1.5,3-1.5,6-3.2,9.1-5.1,3.2-2,6.5-4.3,9.7-6.9h0ZM21.7,50.5c.9.5,1.8.9,2.8,1.4-3.1,1.9-6.2,3.6-9.2,5-3.2,1.6-6.4,2.9-9.5,4.1-.9-.7-1.8-1.4-2.7-2.1,3-1,6-2.2,9-3.5,3.2-1.4,6.4-3,9.7-4.9h0ZM29.9,11.3c1.8-.5,3.1-1.2,4-1.9v.6c-2.7,2.1-5.3,3.9-8,5.6-2.7,1.7-5.3,3.2-8,4.6-.9-.5-1.9-1.1-2.8-1.6,1.9-.9,3.7-1.8,5.6-2.9,2-1.1,4-2.3,6.1-3.6,1.2-.2,2.3-.4,3.2-.7h-.1ZM32.2,24c.9-.6,1.7-1.2,2.6-1.9l.2,2.8c-.4.3-.9.7-1.3,1-.5.4-.9.7-1.4,1-.9-.3-1.8-.7-2.6-1.1.9-.6,1.7-1.2,2.6-1.8h0ZM26.3,16.2c2.5-1.6,5.1-3.4,7.7-5.3l.2,2.8c-2.1,1.6-4.2,3.1-6.3,4.5s-4.2,2.7-6.3,3.9c-.5-.2-1-.5-1.4-.8-.4-.2-.9-.5-1.3-.7,2.5-1.3,5-2.8,7.6-4.4h-.2ZM28.3,18.8c2-1.3,4-2.7,6-4.2l.2,2.8c-1.6,1.2-3.1,2.3-4.6,3.4-1.6,1.1-3.1,2.1-4.7,3.1-.9-.4-1.8-.9-2.8-1.3,2-1.1,3.9-2.3,5.9-3.7h0ZM30.3,21.4c1.4-1,2.8-2,4.2-3.1l.2,2.8c-1,.8-2,1.5-3,2.2s-2,1.4-3,2.1c-.9-.4-1.8-.8-2.7-1.2,1.4-.9,2.8-1.8,4.2-2.8h0ZM15.5,74.2c-4.4-2.7-10.4-6.4-15.1-10.2l.2-2.5c3.1,2.5,6.3,4.8,9.5,6.9,3.4,2.3,6.9,4.3,10.1,6h-4.7s0-.2,0-.2ZM31.4,68.5c2.1-1.5,4.2-3,6.2-4.8l.2,2.7c-1.7,1.4-3.3,2.6-4.9,3.9-1.6,1.2-3.3,2.4-4.9,3.5h0c-.9-.4-1.8-.8-2.7-1.2,2.1-1.3,4.1-2.6,6.2-4.1h0ZM21.8,74.4c-3.6-1.9-7.4-4.1-11.3-6.6-3.3-2.2-6.6-4.6-9.9-7.2l.2-2.4c.4.3.7.6,1.1.9h0c1.2.9,2.3,1.8,3.5,2.7h0c1.2.9,2.4,1.7,3.5,2.5h0c1.2.8,2.4,1.6,3.6,2.4h0c.5.3,1,.6,1.5.9.7.4,1.4.9,2.1,1.3h0c3.4,2,6.7,3.7,10,5.1-1.4.2-2.9.3-4.5.4,0,0,.2,0,.2,0ZM1.3,51.6c2.1-.7,4.3-1.5,6.5-2.3,2.2-.9,4.4-1.8,6.7-2.9.9.6,1.9,1.1,2.8,1.6-2.7,1.4-5.4,2.6-8.1,3.7-2.7,1.1-5.4,2.1-8,3l.2-3.1s-.1,0,0,0h0ZM.4,65c4.3,3.4,9.5,6.7,13.6,9.3-1.7,0-3.3-.3-4.8-.6h0c-1.3-.9-3.1-2.2-5-3.7-1.4-1.1-2.8-2.1-3.9-3v-2h.1ZM29,53.9c.9.4,1.8.7,2.7,1.1-3.1,2.2-6.2,4.2-9.3,6-3.2,1.9-6.4,3.5-9.5,4.9-.9-.6-1.9-1.2-2.8-1.8,3-1.3,6.1-2.7,9.1-4.3,3.2-1.7,6.5-3.7,9.8-5.9h0ZM13.6,66.4c3-1.4,6.1-3,9.1-4.7,3.2-1.9,6.5-4,9.8-6.4.9.3,1.7.6,2.6.9-3.1,2.4-6.2,4.6-9.2,6.5-3.2,2-6.3,3.8-9.5,5.3-.6-.4-1.3-.8-1.9-1.2-.3-.2-.6-.3-.8-.5h0ZM1,55.6c2.8-.9,5.6-1.9,8.4-3.1,2.9-1.2,5.7-2.5,8.6-4,.6.3,1.1.6,1.7.9.4.2.7.4,1.1.6-3.1,1.7-6.1,3.2-9.1,4.6-3.2,1.4-6.3,2.6-9.4,3.7-.5-.4-.9-.7-1.4-1.1v-1.5h.1,0ZM13.5,45.9c-2,.9-4.1,1.8-6.1,2.6s-4.1,1.5-6.1,2.2l.2-3.3c1.5-.5,2.9-1,4.4-1.6s3.1-1.2,4.6-1.8c1,.7,2,1.3,2.9,1.9,0,0,.1,0,.1,0ZM34.1,26.5c.3-.2.6-.4.9-.7v2.1c-.5-.2-1.2-.5-1.8-.7.3-.2.7-.5,1-.7h-.1ZM20.1,48.8c-5.9-3.1-11.8-7-17.9-11.8l.2-2.7c5.8,4.6,11.6,8.3,17.3,11.4,5.8,3.1,11.5,5.4,17.1,7.3l.2,3.1c-5.6-1.9-11.2-4.2-17-7.3,0,0,.1,0,0,0h0ZM20.1,44.8c-5.8-3.1-11.6-6.9-17.6-11.6l.2-2.7c5.8,4.5,11.4,8.2,17,11.1,5.7,3,11.3,5.4,16.9,7.3l.2,3.1c-5.5-1.9-11.1-4.2-16.7-7.2h0ZM20.1,40.9c-5.7-3-11.4-6.8-17.3-11.4l.2-2.7c5.7,4.4,11.2,8,16.7,10.9,5.6,3,11.1,5.3,16.6,7.2l.2,3.1c-5.4-1.9-10.9-4.1-16.4-7.1h0ZM2.5,38.4h-.3v-.5c.2,0,.4.3.5.4h-.3,0ZM20.1,37c-5.6-3-11.3-6.6-17-11.2l.2-2.7c5.6,4.3,11,7.8,16.5,10.7,5.5,2.9,11,5.2,16.4,7.1l.2,3.1c-5.3-1.8-10.7-4.1-16.2-7,0,0-.1,0-.1,0ZM4.1,41.8c-.7.3-1.5.5-2.2.8l.2-3.1c.2,0,.5-.2.6-.2.2,0,.5-.2.8-.3.9.7,1.8,1.4,2.7,2.1-.7.3-1.4.5-2.2.8h.1ZM38.1,69.4c-.2,1.1-1.6,2.1-4,2.9h-.2s-.2,0-.3.2c-.3,0-.6.2-.9.3-.8.2-1.8.5-2.8.7,1.1-.8,2.3-1.6,3.5-2.5,1.5-1.1,3-2.3,4.5-3.5v1.7l.2.2h0ZM33.7,74.1v.8c0,1-1.6,1.9-4.1,2.7-2.7.8-6.5,1.3-10.6,1.3s-7.9-.5-10.6-1.3c-2.5-.7-4.1-1.7-4.1-2.7v-1.5c.3,0,.5.2.8.2,2.8.8,6.3,1.4,10.3,1.6h6.4c2,0,4-.3,5.7-.5h.5c1.7-.3,3.3-.6,4.7-1,.2,0,.5,0,.7-.2v.7h.3ZM4.4,72.5s-.2,0-.3-.2h-.2c-2.3-.8-3.7-1.9-3.9-2.9v-1.4c1.1.8,2.4,1.8,3.6,2.7,1.2.9,2.5,1.8,3.6,2.6-.7,0-1.3-.3-1.9-.5-.3,0-.7-.2-1-.3,0,0,0,0,.1,0ZM11.4,1.9c0-.4.8-.9,2-1.2,1.4-.4,3.4-.7,5.6-.7s4.2.3,5.6.7c1.3.4,2,.8,2,1.2s-.8.9-2,1.2c-1.4.4-3.4.7-5.6.7s-4.2-.3-5.6-.7c-1.3-.4-2-.8-2-1.2ZM14.3,18c-.9-.6-1.9-1.2-2.8-1.8,1.2-.5,2.3-1,3.5-1.6,1.3-.6,2.6-1.3,4-2h0c2,0,4-.1,5.7-.3-1.5.9-3,1.8-4.5,2.6-2,1.1-4,2.1-6,3.1h0ZM10.7,15.7c-.8-.5-1.5-1-2.3-1.6.6-.3,1.2-.5,1.8-.8.7-.3,1.5-.7,2.2-1.1,1.5.2,3.1.4,4.8.4-.9.4-1.7.9-2.6,1.3-1.3.6-2.6,1.2-4,1.8h0ZM11.4,6.7v-3.4c.5.3,1,.5,1.8.8,1.5.4,3.6.7,5.9.7s4.4-.3,5.9-.7c.7-.2,1.3-.5,1.8-.8v3.4c0,.4-.8.9-2,1.2-1.4.4-3.4.7-5.6.7s-4.2-.3-5.6-.7c-1.3-.4-2-.8-2-1.2,0,0-.2,0-.2,0ZM20.1,33c-5.5-2.9-11.1-6.5-16.8-11l.2-2.7c5.5,4.2,10.9,7.7,16.2,10.5,5.4,2.9,10.8,5.2,16.1,7l.2,3.1c-5.3-1.8-10.6-4.1-15.9-6.9h0ZM11,11.9l-1.2.6c-.7.3-1.5.7-2.2,1-.7-.5-1.4-1-2.1-1.5.2-.1.5-.2.8-.4.4-.2.7-.4,1.1-.6.2,0,.4.1.6.2.9.3,1.9.5,2.9.7,0,0,.1,0,0,0h0ZM4.3,7.6c0-.6.6-1.2,1.6-1.7,1.1-.6,2.6-1.1,4.5-1.5v2.2c0,.9,1.1,1.6,2.7,2.1,1.5.4,3.6.7,5.9.7s4.4-.3,5.9-.7c1.7-.5,2.7-1.2,2.7-2.1v-2.2c1.9.4,3.4.9,4.5,1.5,1,.6,1.6,1.1,1.6,1.7,0,1-1.6,1.9-4.1,2.7-2.7.8-6.5,1.3-10.6,1.3s-7.9-.5-10.6-1.3c-2.5-.7-4.1-1.7-4.1-2.7h0ZM20,25.2c-5.3-2.8-10.7-6.3-16.2-10.6l.2-2.8c.2.1.3.3.5.4h0c.9.7,1.9,1.4,2.8,2.1h0c3.5,2.5,6.9,4.7,10.3,6.6h0c.7.4,1.3.7,2,1.1.5.3,1.1.6,1.6.9h0l3.6,1.8h0c1.2.6,2.4,1.1,3.6,1.6h0c2.2.9,4.4,1.8,6.6,2.5l.2,3.1c-5.1-1.8-10.2-4-15.4-6.8h.2,0ZM20,29.1c-5.4-2.9-10.9-6.4-16.5-10.8l.2-2.8c5.4,4.1,10.7,7.5,15.9,10.3,5.3,2.8,10.6,5.1,15.9,6.9l.2,3.1c-5.2-1.8-10.4-4-15.7-6.8h0ZM4.8,11.5c-.2-.2-.5-.4-.7-.6v-1.6c.6.5,1.4.9,2.4,1.4,0,0-.3.1-.5.2l-1.2.6h0Z"/>
</svg>