<?xml version="1.0" encoding="UTF-8"?>
<svg id="Layer_1" data-name="Layer 1" xmlns="http://www.w3.org/2000/svg" viewBox="0 0 42.65 84.81">
  <defs>
    <style>
      .cls-1 {
        fill-rule: evenodd;
      }
    </style>
  </defs>
  <path class="cls-1" d="M33.93,36.55c-4.22-7.52-10.17-10.23-13.51-11.75-.1-.04-.19-.09-.29-.13-.17,1.1-.29,2.23-.34,3.4,1.17.53,2.27,1.08,3.31,1.73h0c.69.43,1.35.89,2.01,1.41,1.7,1.34,3.33,3.05,5.04,5.41l3.77-.07h0ZM12.35,3.81c-.24,1.22-.35,2.26-.33,3.17.01.51.06.98.16,1.4.48-.81.98-1.58,1.5-2.27.95-1.28,1.95-2.35,2.99-3.15-.5.05-.99.12-1.49.2-.97.16-1.92.38-2.84.65h0ZM7.19,23.18c-1.29-.86-2.51-1.8-3.44-2.73-.17-.17-.34-.35-.49-.52.5,2.94,1.17,4.98,1.78,6.84.98,2.99,1.81,5.51,1.56,10.3l1.51-.03c-1.4-4.23-1.57-9.1-.91-13.86h0ZM8.13,18.42c-.31,1.21-.57,2.44-.78,3.68-1.1-.75-2.12-1.56-2.91-2.35-.76-.75-1.3-1.49-1.48-2.13-.02-.08-.05-.16-.11-.23-.72-.85-1.1-1.84-1.2-2.8-.07-.7,0-1.38.18-1.97.18-.57.47-1.04.85-1.36.15-.13.31-.23.48-.3.42,1.63,1.07,3.02,1.9,4.23.85,1.24,1.89,2.29,3.06,3.21h0ZM34.64,32.35s.02.06.04.09c.45.79.81,2.13.74,3.13-.02.25-.06.47-.13.64-.05.13-.13.22-.22.27-.02,0-.03.02-.04.02-4.39-8.13-10.69-11-14.2-12.6-.19-.09-.37-.17-.52-.24.21-1.12.47-2.2.78-3.25,3.26,1.19,6,2.91,8.17,4.79,2.76,2.39,4.59,5.03,5.38,7.15h0ZM9.54,13.94c-1.15-1.27-1.94-2.57-2.47-3.75-.63-1.42-.88-2.7-.89-3.6-.22.03-.43.08-.63.14-.59.19-1.04.5-1.33.9-.29.41-.43.91-.42,1.48,0,.35.07.72.19,1.11,0,.02.01.04.01.06.38,1.69,1.02,3.12,1.86,4.35.71,1.04,1.57,1.94,2.54,2.73.12-.41.24-.81.36-1.21.24-.76.5-1.5.77-2.23h0ZM10.57,14c1.09-2.82,2.43-5.33,3.9-7.31,1.38-1.86,2.86-3.23,4.33-3.91.02,0,.05-.02.07-.03.47-.21.95-.35,1.41-.41.64-.08,1.28-.02,1.9.21-4.53,4.42-7.77,9.6-9.56,15.44-1.76,5.73-2.12,12.09-.93,18.99l-2.56.05c-1.47-4.23-1.64-9.17-.94-13.98,0-.02,0-.04,0-.06.33-2.23.84-4.43,1.5-6.52.26-.84.55-1.65.85-2.44v-.03s.02,0,.02,0ZM7.17,6.42c.07-.05.11-.13.14-.2l.02-.05s0-.01,0-.02h0s0-.04,0-.04h0s0-.06,0-.08c-.01-.81.21-1.39.56-1.79.34-.39.81-.62,1.3-.75.51-.13,1.05-.13,1.5-.07.31.04.55.11.69.17-.26,1.29-.37,2.41-.35,3.39.02.98.18,1.82.48,2.57-.56,1.05-1.09,2.17-1.57,3.35-.9-1.07-1.54-2.13-1.97-3.12-.62-1.39-.83-2.6-.8-3.37h0ZM29.85,6.9c2.63,1.28,4.07,3.93,4.64,6.88.58,2.99.25,6.31-.64,8.79-.06.15-.11.3-.17.44.91,1.16,1.7,2.42,2.33,3.81.21-.87.43-1.73.66-2.6.37-1.43.74-2.87,1.05-4.27.7-3.17.59-6.25-.5-8.89-.96-2.32-2.7-4.33-5.33-5.77-.7.51-1.38,1.05-2.03,1.62h0ZM27.37,9.31c.54-.59,1.1-1.15,1.68-1.7.04.01.08.03.12.05,2.47,1.07,3.82,3.53,4.35,6.29.54,2.79.25,5.86-.56,8.18-.43-.49-.89-.95-1.36-1.4-.23-.22-.47-.43-.71-.64.04-.17.08-.35.11-.55.24-1.43.26-3.66-.25-5.68-.51-2.03-1.54-3.86-3.38-4.56h0ZM26.5,33.76c.81.82,1.62,1.77,2.46,2.88l-2.88.06c.05-.88.25-2.03.42-2.94h0ZM26.08,16.77c.21-.72.1-1.53-.19-2.25-.29-.72-.76-1.33-1.27-1.68-.53.79-1.01,1.62-1.46,2.48.99.44,1.97.92,2.92,1.45h0ZM26.08,17.9c1.75,1.01,3.4,2.19,4.84,3.55.64.61,1.25,1.25,1.81,1.94h.01c1.24,1.53,2.24,3.25,2.92,5.18,0,.02,0,.03.01.05.22.56.43,1.27.44,1.89,0,.28-.03.54-.12.74-.08.16-.2.3-.4.37-.05.02-.1.04-.16.05-.9-2.19-2.78-4.83-5.53-7.21-2.26-1.96-5.11-3.75-8.51-4.99.08-.25.17-.5.26-.74.32-.87.68-1.72,1.07-2.53,1.14.5,2.26,1.06,3.35,1.69,0,0,.01,0,.02.01h0ZM25.18,12.04c.47-.66.97-1.3,1.49-1.91.08.02.15.04.23.07,1.57.51,2.46,2.13,2.91,3.93.47,1.88.46,3.95.24,5.27h0c-.97-.77-2.01-1.47-3.09-2.11.37-1.01.25-2.14-.14-3.12-.36-.89-.96-1.66-1.63-2.12h0ZM24.04,11.94c-.73,1.07-1.39,2.19-1.99,3.38-.01.02-.02.03-.03.05-.48.97-.92,1.98-1.3,3.02-.15.4-.29.81-.42,1.22v.02c-.85,2.66-1.38,5.56-1.52,8.7,0,.01,0,.02,0,.03-.11,2.65.05,5.46.52,8.45l-3.01.06c-.47-2.04-.7-4.3-.69-6.66.01-2.57.3-5.26.84-7.9.06-.27-.12-.53-.38-.58-.27-.06-.53.12-.58.38-.56,2.7-.85,5.45-.86,8.1,0,2.35.21,4.61.67,6.68l-2.61.05c-1.19-6.8-.85-13.05.87-18.68,1.81-5.88,5.13-11.07,9.79-15.48.64-.39,1.26-.66,1.81-.74.32-.05.61-.03.85.06.23.09.43.25.58.51.09.15.17.33.24.55,0,.02.01.05.02.07.01.05.02.09.04.14-2.26,1.19-4.26,3.1-5.94,5.47-1.9,2.68-3.42,5.96-4.49,9.46-.08.26.06.54.33.62.26.08.54-.06.62-.33,1.04-3.4,2.5-6.58,4.35-9.17,1.67-2.36,3.65-4.22,5.89-5.32.01,0,.02,0,.03-.01.25-.13.48-.23.71-.31.01,0,.03-.01.04-.02.76-.26,1.37-.27,1.84-.14.34.09.61.25.8.43.15.14.25.28.3.4-.95.69-1.86,1.44-2.74,2.23-.01,0-.02.02-.03.03-.87.79-1.69,1.64-2.47,2.54-.01.01-.02.03-.04.04-.72.83-1.39,1.71-2.02,2.62l-.03.04h.01ZM21.91,36.78l-1.61.03c-.44-2.7-.61-5.27-.55-7.68.87.4,1.69.82,2.49,1.3-.41,1.42-.36,4.8-.33,6.35h0ZM23.08,30.95c.49.32.96.66,1.44,1.03.38.3.76.63,1.14.97-.2,1-.5,2.58-.57,3.77l-2.2.04c-.03-1.46-.08-4.6.19-5.81h0ZM6.9,48.13c4.22,7.52,10.17,10.23,13.51,11.75.1.04.19.09.29.13.17-1.1.29-2.23.34-3.4-1.17-.53-2.27-1.08-3.32-1.73h0c-.69-.43-1.35-.89-2.01-1.41-1.7-1.34-3.33-3.05-5.04-5.41l-3.77.07ZM28.48,80.87c.24-1.22.35-2.26.33-3.17-.01-.51-.06-.98-.16-1.4-.48.81-.98,1.58-1.5,2.27-.95,1.28-1.95,2.35-2.99,3.15.5-.05.99-.12,1.49-.2.97-.16,1.92-.38,2.84-.65h0ZM33.64,61.5c1.29.86,2.51,1.8,3.44,2.73.17.17.34.35.49.52-.5-2.94-1.17-4.98-1.78-6.84-.98-2.99-1.81-5.51-1.56-10.3l-1.51.03c1.4,4.23,1.57,9.1.91,13.86h0ZM32.7,66.26c.31-1.21.57-2.44.78-3.68,1.1.75,2.12,1.56,2.91,2.35.76.75,1.3,1.49,1.48,2.13.02.08.05.16.11.23.72.85,1.1,1.84,1.2,2.8.07.7,0,1.38-.18,1.97-.18.57-.47,1.04-.85,1.36-.15.13-.31.23-.48.3-.42-1.63-1.07-3.02-1.9-4.23-.85-1.24-1.89-2.29-3.06-3.21h0ZM6.2,52.33s-.02-.06-.04-.09c-.45-.79-.81-2.13-.74-3.13.02-.25.06-.47.13-.64.05-.13.13-.22.22-.27.02,0,.03-.02.04-.02,4.39,8.13,10.69,11,14.2,12.6.19.09.37.17.53.24-.21,1.12-.47,2.2-.78,3.25-3.26-1.19-6-2.91-8.17-4.79-2.76-2.39-4.59-5.03-5.38-7.15h-.01ZM31.29,70.73c1.15,1.27,1.94,2.57,2.47,3.75.63,1.42.88,2.7.89,3.6.22-.03.43-.08.63-.14.59-.19,1.04-.5,1.33-.9.29-.41.43-.91.42-1.48,0-.35-.07-.72-.19-1.11,0-.02-.01-.04-.01-.06-.38-1.69-1.02-3.12-1.86-4.35-.71-1.04-1.57-1.94-2.54-2.73-.12.41-.24.81-.36,1.21-.24.76-.5,1.5-.77,2.23h0ZM30.26,70.68c-1.09,2.82-2.43,5.33-3.9,7.31-1.38,1.86-2.86,3.23-4.33,3.91-.02,0-.05.02-.07.03-.47.21-.95.35-1.41.41-.64.08-1.28.02-1.9-.21,4.53-4.42,7.77-9.6,9.56-15.44,1.76-5.73,2.12-12.09.93-18.99l2.56-.05c1.47,4.23,1.64,9.17.94,13.98,0,.02,0,.04,0,.06-.33,2.23-.84,4.43-1.5,6.52-.26.84-.55,1.65-.85,2.44v.03s-.02,0-.02,0ZM33.66,78.25c-.08.07-.13.16-.16.26h0s0,.04,0,.05c0,.03,0,.06,0,.09.01.81-.21,1.39-.56,1.78-.34.39-.81.62-1.3.75-.51.13-1.05.13-1.5.07-.31-.04-.55-.11-.69-.17.26-1.29.37-2.41.35-3.39-.02-.98-.18-1.82-.48-2.57.56-1.05,1.09-2.17,1.57-3.35.9,1.07,1.54,2.13,1.97,3.12.62,1.39.83,2.6.8,3.37h0ZM10.98,77.77c-2.63-1.28-4.07-3.93-4.64-6.88-.58-2.99-.25-6.31.64-8.79.06-.15.11-.3.17-.44-.91-1.16-1.7-2.42-2.33-3.81-.21.87-.43,1.73-.66,2.6-.37,1.43-.74,2.87-1.05,4.27-.7,3.17-.59,6.25.5,8.89.96,2.32,2.7,4.33,5.33,5.77.7-.51,1.38-1.05,2.03-1.62h0ZM13.46,75.36c-.54.59-1.1,1.15-1.68,1.7-.04-.01-.08-.03-.12-.05-2.47-1.07-3.82-3.53-4.35-6.29-.54-2.79-.25-5.86.56-8.18.43.49.89.95,1.36,1.4.23.22.47.43.71.64-.04.17-.08.35-.11.55-.24,1.43-.26,3.66.25,5.68.51,2.03,1.54,3.86,3.38,4.56h0ZM14.33,50.92c-.81-.82-1.62-1.77-2.46-2.88l2.88-.06c-.05.88-.25,2.03-.42,2.94h0ZM14.75,67.91c-.21.72-.1,1.53.19,2.25.29.72.76,1.33,1.27,1.68.53-.79,1.01-1.62,1.46-2.48-.99-.44-1.97-.92-2.92-1.45h0ZM14.75,66.78c-1.75-1.01-3.4-2.19-4.84-3.55-.64-.61-1.25-1.25-1.81-1.93h-.01c-1.24-1.53-2.24-3.25-2.91-5.18,0-.02,0-.03-.01-.05-.22-.56-.43-1.27-.44-1.89,0-.28.03-.54.12-.74.08-.16.2-.3.4-.37.05-.02.1-.04.16-.05.9,2.19,2.78,4.83,5.53,7.21,2.26,1.96,5.11,3.75,8.51,4.99-.08.25-.17.5-.26.74-.32.87-.68,1.72-1.07,2.53-1.14-.5-2.26-1.06-3.35-1.69,0,0-.01,0-.02-.01h0ZM15.66,72.64c-.47.66-.97,1.3-1.49,1.91-.08-.02-.15-.04-.23-.07-1.57-.51-2.46-2.13-2.91-3.93-.47-1.88-.46-3.95-.24-5.27h0c.97.77,2.01,1.47,3.09,2.11-.37,1.01-.25,2.14.14,3.12.36.89.96,1.66,1.63,2.12h0ZM16.79,72.73c.73-1.07,1.39-2.19,1.99-3.38.01-.02.02-.03.03-.05.48-.97.92-1.98,1.3-3.02.15-.4.29-.81.42-1.22v-.02c.85-2.66,1.38-5.56,1.52-8.7,0-.01,0-.02,0-.03.11-2.65-.05-5.46-.52-8.45l3.01-.06c.47,2.04.7,4.3.69,6.66-.01,2.57-.3,5.26-.84,7.9-.06.27.12.53.38.58.27.06.53-.12.58-.38.56-2.7.85-5.45.86-8.1,0-2.35-.21-4.61-.67-6.68l2.61-.05c1.19,6.8.85,13.05-.87,18.68-1.81,5.88-5.13,11.07-9.79,15.48-.64.39-1.26.66-1.81.74-.32.05-.61.03-.85-.06-.23-.09-.43-.25-.58-.51-.09-.15-.17-.33-.24-.55,0-.02-.01-.05-.02-.07l-.04-.14c2.26-1.19,4.26-3.1,5.94-5.47,1.9-2.68,3.42-5.96,4.49-9.46.08-.26-.06-.54-.33-.62-.26-.08-.54.06-.62.33-1.04,3.4-2.5,6.58-4.35,9.17-1.67,2.36-3.65,4.22-5.89,5.32h-.03c-.25.14-.48.24-.71.32-.01,0-.03.01-.04.01-.76.26-1.37.27-1.84.14-.34-.09-.61-.25-.8-.43-.15-.14-.25-.28-.3-.4.95-.69,1.86-1.44,2.74-2.23.01,0,.02-.02.03-.03.87-.79,1.7-1.64,2.47-2.54.01-.01.02-.03.03-.04.72-.83,1.39-1.71,2.02-2.63l.03-.04h-.01ZM18.92,47.9l1.61-.03c.44,2.7.61,5.27.55,7.68-.87-.4-1.69-.82-2.49-1.3.41-1.42.36-4.8.33-6.35h0ZM17.75,53.73c-.49-.32-.96-.66-1.44-1.03-.38-.3-.76-.63-1.14-.97.2-1,.5-2.58.57-3.77l2.2-.04c.03,1.46.08,4.6-.19,5.81h0ZM35.25,37.5c.04.05.08.11.13.19.49.87.76,2.76.78,4.62.02,1.84-.19,3.6-.66,4.23-.02.02-.03.04-.04.05h-.69s-.03,0-.04.01l-6.15.12s-.04,0-.05,0l-3.58.07s-.03,0-.05,0l-3.91.08s-.05,0-.07,0l-2.46.05s-.02,0-.02,0h-.03s-3.14.06-3.14.06l-4.32.08s-.03,0-.05,0l-4.46.09s-.07-.07-.1-.1c-.6-.71-.96-2.4-1.02-4.18-.06-1.79.18-3.61.78-4.57.06-.09.12-.18.19-.25l5.98-.11s.04,0,.05,0l3.58-.07s.03,0,.05,0l3.91-.08s.05,0,.07,0l2.47-.04s.02,0,.03,0h.03s3.14-.06,3.14-.06l4.32-.08s.03,0,.05,0l4.78-.09h.02c.09,0,.18,0,.26,0h.25s0,0,0,0Z"/>
</svg>