<?xml version="1.0" encoding="UTF-8"?>
<svg id="Layer_1" xmlns="http://www.w3.org/2000/svg" version="1.1" viewBox="0 0 50.7 60.5">
  <!-- Generator: Adobe Illustrator 30.5.0, SVG Export Plug-In . SVG Version: 2.1.4 Build 167)  -->
  <path d="M10.8,57.3c3.6,2.2,7.3,1.9,11.2-1.1h0c0,.1,0,.2,0,.2l.2.4s0,0,0,.1c.1.3,0,.7,0,1-.1.3-.4.6-.7.7,0,0-.1,0-.2,0,0,0-.1,0-.2,0-.3,0-.7,0-1,0-.3-.1-.5-.3-.6-.6-.4.2-.7.3-1.1.4.3.6.7,1.1,1.2,1.4.7.5,1.5.8,2.3.5,0,0,0,0,0,0,0,0,0,0,0,0,.8-.3,1.3-1.1,1.6-1.9.2-.9.2-1.9-.1-2.8,0,0,0-.1,0-.1v-.3c-.1,0-.1,0-.1,0,0,0,0,0,0,0,4.4-3.6,10.5-5.3,16.2-4.5,4.5.6,8.1,2.7,10.3,5.8.1.2.4.2.6,0,.2-.1.2-.4,0-.6-2.3-3.3-6.2-5.5-10.9-6.1-1-.1-1.9-.2-2.9-.2-4.9,0-9.9,1.7-13.7,4.7-1.7-4.2-3.4-8.5-5.1-12.8C12.5,27.4,6.8,13,0,0c3.6,14.3,8.5,28.7,13.2,43,1.6,4.9,3.3,9.7,4.8,14.5-2.3.8-4.5.5-6.8-.9l-.4.7ZM18.7,54.4c0-.2,0-.5,0-.7s.3-.4.5-.5h.2c.2-.2.5-.2.7,0s.4.2.5.5l.9,1.8s0,0,0,0c-.8.6-1.6,1.1-2.3,1.4l-.6-2.5h0Z"/>
</svg>